<?xml version="1.0" standalone="no"?><!DOCTYPE svg PUBLIC "-//W3C//DTD SVG 1.1//EN" "http://www.w3.org/Graphics/SVG/1.1/DTD/svg11.dtd"><svg t="1622714500750" class="icon" viewBox="0 0 1024 1024" version="1.1" xmlns="http://www.w3.org/2000/svg" p-id="1924" xmlns:xlink="http://www.w3.org/1999/xlink" width="200" height="200"><defs><style type="text/css"></style></defs><path d="M410.45504 215.04l-50.35008 81.06496 109.59872 8.25856L551.25504 337.92V248.32" fill="#FF4893" p-id="1925"></path><path d="M558.96064 341.02784c121.48224 72.28416 186.8288 217.99424 151.01952 362.27072-43.79648 176.50176-222.37696 284.04736-398.90944 240.2816-176.50176-43.79648-284.04736-222.40768-240.2816-398.90944C104.7808 407.6544 220.0576 312.13056 352.50688 296.78592c38.13888-4.44416 77.71648-2.20672 117.1968 7.5776a328.0384 328.0384 0 0 1 89.25696 36.66432z" fill="#FF4893" p-id="1926"></path><path d="M390.61504 975.7184a353.28512 353.28512 0 0 1-84.92544-10.4192C117.51936 918.60992 2.4064 727.49568 49.0752 539.28448c17.57696-70.86592 55.9616-133.48864 111.01184-181.10976 53.8112-46.55104 119.45984-75.46368 189.84448-83.61984 41.47712-4.82816 84.09088-2.08896 125.15328 8.08448a350.65344 350.65344 0 0 1 95.34464 39.17312c63.488 37.77536 114.49856 96.23552 143.616 164.58752 30.10048 70.67648 36.20864 147.54816 17.65888 222.29504-39.0144 157.21984-179.27168 267.02336-341.08928 267.02336z m-0.44032-658.7392c-11.68384 0-23.48544 0.68608-35.07712 2.03776-126.41792 14.6432-231.936 107.4944-262.5792 231.04512-40.7296 164.26496 59.72992 331.05408 223.9488 371.80416a308.61312 308.61312 0 0 0 74.15296 9.10336c141.19936 0 263.59808-95.83104 297.64608-233.04704 32.32768-130.26304-25.5488-269.11232-140.73856-337.65376a305.93024 305.93024 0 0 0-83.20512-34.18112 308.32128 308.32128 0 0 0-74.14784-9.10848z m521.02656 56.43264c-90.496 0-164.28544-73.472-164.61312-164.04992a22.3744 22.3744 0 0 1 22.2976-22.45632h0.08192a22.3744 22.3744 0 0 1 22.3744 22.2976c0.24064 65.95072 53.97504 119.45472 119.8592 119.45472h0.47104a22.3744 22.3744 0 1 1 0.06656 44.75392h-0.5376z" fill="#4F46A3" p-id="1927"></path><path d="M483.00544 237.93152a22.37952 22.37952 0 0 1-22.37952-22.37952v-0.48128c0-90.43456 73.5744-164.2752 164.01408-164.608h0.54272c90.5216 0 164.3264 73.472 164.6592 164.04992a22.3744 22.3744 0 0 1-22.2976 22.45632h-0.08192a22.3744 22.3744 0 0 1-22.3744-22.2976c-0.24064-66.08384-54.23104-119.70048-120.2944-119.45472-65.83808 0.24064-119.40864 54.01088-119.40864 119.85408v0.48128a22.38464 22.38464 0 0 1-22.37952 22.37952z m415.09376 336.98304a22.3744 22.3744 0 0 1-14.464-39.46496 119.39328 119.39328 0 0 0 17.14176-17.8688c34.67776-44.46208 33.34656-107.9808-3.14368-151.05024a22.3744 22.3744 0 0 1 34.14528-28.93312c50.11968 59.15648 51.93216 146.41664 4.31104 207.47776a164.20864 164.20864 0 0 1-23.56224 24.55552 22.26688 22.26688 0 0 1-14.42816 5.28384z" fill="#4F46A3" p-id="1928"></path><path d="M559.22176 362.89536a22.37952 22.37952 0 0 1-22.23104-20.08064l-8.04864-77.97248-115.07712-28.57472-43.62752 65.22368a22.3744 22.3744 0 0 1-37.20192-24.8832l52.36736-78.28992a22.3744 22.3744 0 0 1 23.99232-9.27744l145.5872 36.15744a22.3744 22.3744 0 0 1 16.86528 19.42016l9.65632 93.60384a22.38464 22.38464 0 0 1-22.28224 24.67328zM182.08768 515.328a22.37952 22.37952 0 0 1-19.18464-33.86368 256.08192 256.08192 0 0 1 27.32544-37.48864 22.3744 22.3744 0 0 1 33.62816 29.53216 211.27168 211.27168 0 0 0-22.54336 30.9248 22.35904 22.35904 0 0 1-19.2256 10.89536z m143.77472 345.17504a22.3232 22.3232 0 0 1-5.4016-0.6656c-66.11968-16.38912-121.89696-57.55904-157.05088-115.9168s-45.48096-126.90944-29.07136-193.03424a22.3744 22.3744 0 0 1 27.0848-16.33792l0.0256 0.00512a22.3744 22.3744 0 0 1 16.32768 27.10528c-13.52704 54.51776-5.0176 111.04256 23.97184 159.16032 28.98432 48.11776 74.97216 82.05824 129.47968 95.57504a22.37952 22.37952 0 0 1-5.36576 44.1088zM976.128 597.5552c8.0896 4.1472 12.4416 13.1072 10.752 22.016a20.38784 20.38784 0 0 1-18.1248 16.5376l-19.0976 1.8944 8.6528 17.152c4.0448 8.0896 2.304 17.92-4.3008 24.1152a20.40832 20.40832 0 0 1-24.3712 2.7648l-16.5888-9.728-3.072 18.944a20.47488 20.47488 0 0 1-20.224 17.2032 20.48 20.48 0 0 1-18.7904-12.288l-7.68-17.6128-13.6192 13.5168a20.46464 20.46464 0 0 1-24.32 3.3792 20.4544 20.4544 0 0 1-10.0864-22.3232l4.1472-18.7392-18.9952 2.9184c-8.96 1.3824-17.7664-3.328-21.6576-11.52-3.84-8.2432-1.8432-18.0224 4.9152-24.064l14.3872-12.7488-17.0496-8.8064a20.43904 20.43904 0 0 1-10.752-22.016 20.49536 20.49536 0 0 1 18.176-16.5376l19.0464-1.8944-8.6528-17.1008a20.4288 20.4288 0 0 1 4.3008-24.1664 20.39808 20.39808 0 0 1 24.3712-2.7136l16.5888 9.728 3.072-18.9952a20.48 20.48 0 0 1 38.9632-4.864l7.68 17.5616 13.6704-13.5168a20.47488 20.47488 0 0 1 24.2688-3.3792c7.9872 4.352 12.0832 13.4656 10.1376 22.3232l-4.1472 18.7904 18.9952-2.9184c8.96-1.3824 17.7664 3.328 21.6576 11.52 3.84 8.2432 1.8432 18.0224-4.9664 24.064l-14.336 12.6976 17.0496 8.8064z m-70.4 6.5024c-1.536-2.4576-2.56-5.2736-2.9184-8.2432-0.4096-2.9696-0.1024-5.9392 0.768-8.704-2.6624-1.0752-5.1712-2.7648-7.168-4.9664-2.048-2.1504-3.584-4.7104-4.5056-7.4752-2.816 0.7168-5.7856 0.8192-8.7552 0.256-2.9184-0.6144-5.6832-1.792-8.0384-3.4816-1.8944 2.2528-4.2496 4.0448-6.9632 5.3248-2.6624 1.28-5.5808 1.8944-8.4992 1.9456-0.2048 2.9184-1.024 5.7856-2.4576 8.3968-1.4848 2.6112-3.4304 4.864-5.7856 6.5536 1.536 2.4576 2.56 5.2736 2.9184 8.2432s0.1024 5.9392-0.768 8.704c2.6624 1.0752 5.1712 2.7648 7.2192 4.9664 2.048 2.2016 3.5328 4.7616 4.5056 7.5264 1.536-0.4096 3.1744-0.6144 4.864-0.6144 1.28 0 2.56 0.1536 3.84 0.3584 2.9184 0.5632 5.632 1.792 7.9872 3.4304 1.8944-2.2016 4.2496-4.0448 6.9632-5.3248s5.632-1.8944 8.5504-1.9456a20.39808 20.39808 0 0 1 8.2432-14.9504z" fill="#4F46A3" p-id="1929"></path><path d="M902.8096 595.8144c0.3584 2.9696 1.3824 5.7856 2.9184 8.2432a20.39808 20.39808 0 0 0-8.2432 14.9504c-2.9184 0.0512-5.8368 0.6656-8.5504 1.9456s-5.0688 3.1232-6.9632 5.3248a21.0432 21.0432 0 0 0-7.9872-3.4304c-1.28-0.2048-2.56-0.3584-3.84-0.3584-1.6896 0-3.328 0.2048-4.864 0.6144-0.9728-2.7648-2.4576-5.3248-4.5056-7.5264-2.048-2.2016-4.5568-3.8912-7.2192-4.9664 0.8704-2.7648 1.1264-5.7344 0.768-8.704-0.3584-2.9696-1.3824-5.7856-2.9184-8.2432 2.3552-1.6896 4.3008-3.9424 5.7856-6.5536 1.4336-2.6112 2.2528-5.4784 2.4576-8.3968a20.4288 20.4288 0 0 0 8.4992-1.9456c2.7136-1.28 5.0688-3.072 6.9632-5.3248 2.3552 1.6896 5.12 2.8672 8.0384 3.4816 2.9696 0.5632 5.9392 0.4608 8.7552-0.256 0.9216 2.7648 2.4576 5.3248 4.5056 7.4752 1.9968 2.2016 4.5056 3.8912 7.168 4.9664-0.8704 2.7648-1.1776 5.7344-0.768 8.704z" fill="#FF4893" p-id="1930"></path></svg>